<?xml version="1.0" encoding="UTF-8" standalone="no"?>
<!-- Created with Inkscape (http://www.inkscape.org/) -->

<svg
   xmlns:dc="http://purl.org/dc/elements/1.1/"
   xmlns:cc="http://creativecommons.org/ns#"
   xmlns:rdf="http://www.w3.org/1999/02/22-rdf-syntax-ns#"
   xmlns:svg="http://www.w3.org/2000/svg"
   xmlns="http://www.w3.org/2000/svg"
   xmlns:sodipodi="http://sodipodi.sourceforge.net/DTD/sodipodi-0.dtd"
   xmlns:inkscape="http://www.inkscape.org/namespaces/inkscape"
   width="297mm"
   height="210mm"
   id="svg3027"
   version="1.1"
   inkscape:version="0.48.4 r9939"
   sodipodi:docname="bee2.svg">
  <defs
     id="defs3029" />
  <sodipodi:namedview
     inkscape:document-units="mm"
     pagecolor="#ffffff"
     bordercolor="#666666"
     borderopacity="1.0"
     inkscape:pageopacity="0.0"
     inkscape:pageshadow="2"
     inkscape:zoom="0.43415836"
     inkscape:cx="490"
     inkscape:cy="380"
     inkscape:current-layer="layer1"
     id="namedview3031"
     showgrid="false"
     inkscape:window-width="682"
     inkscape:window-height="716"
     inkscape:window-x="0"
     inkscape:window-y="0"
     inkscape:window-maximized="0" />
  <metadata
     id="metadata3033">
    <rdf:RDF>
      <cc:Work
         rdf:about="">
        <dc:format>image/svg+xml</dc:format>
        <dc:type
           rdf:resource="http://purl.org/dc/dcmitype/StillImage" />
        <dc:title></dc:title>
      </cc:Work>
    </rdf:RDF>
  </metadata>
  <g
     inkscape:label="Layer 1"
     inkscape:groupmode="layer"
     id="layer1">
    <path
       sodipodi:type="arc"
       style="fill:#ffff00;stroke:#000000;stroke-opacity:1"
       id="path2993"
       sodipodi:cx="16"
       sodipodi:cy="13.857142"
       sodipodi:rx="9"
       sodipodi:ry="3.4285715"
       d="m 25,13.857142 a 9,3.4285715 0 1 1 -18,0 9,3.4285715 0 1 1 18,0 z"
       transform="matrix(29.036921,0,0,34.333814,178.03623,-43.039232)" />
    <text
       xml:space="preserve"
       style="font-size:241.68536377000000925px;font-style:normal;font-variant:normal;font-weight:bold;font-stretch:normal;line-height:125%;letter-spacing:0px;word-spacing:0px;fill:#ffffff;fill-opacity:1;stroke:none;font-family:Sans;-inkscape-font-specification:Sans Bold"
       x="143.08293"
       y="316.7908"
       id="text5245"
       sodipodi:linespacing="125%"
       transform="scale(0.98292067,1.0173761)"><tspan
         sodipodi:role="line"
         x="143.08293"
         y="316.7908"
         style="font-size:134.26965332000000330px;fill:#ffffff"
         id="tspan2995">Bee</tspan><tspan
         sodipodi:role="line"
         x="143.08293"
         y="484.62787"
         style="font-size:134.26965332000000330px;fill:#ffffff"
         id="tspan2997" /><tspan
         sodipodi:role="line"
         x="143.08293"
         y="652.46497"
         style="font-size:134.26965332000000330px;fill:#ffffff"
         id="tspan2999">Seasonal</tspan></text>
    <path
       sodipodi:type="arc"
       style="fill:#ffffff;stroke:#000000;stroke-opacity:1"
       id="path5251"
       sodipodi:cx="-22.714285"
       sodipodi:cy="20.785715"
       sodipodi:rx="2.4285715"
       sodipodi:ry="3.5"
       d="m -20.285713,20.785715 a 2.4285715,3.5 0 1 1 -4.857143,0 2.4285715,3.5 0 1 1 4.857143,0 z"
       transform="matrix(17.440001,0,0,18.773381,1182.0555,-48.673863)" />
    <path
       sodipodi:type="arc"
       style="fill:#ffffff;stroke:#000000;stroke-opacity:1"
       id="path5259"
       sodipodi:cx="-53.642857"
       sodipodi:cy="21.928572"
       sodipodi:rx="0.21428572"
       sodipodi:ry="0.21428572"
       d="m -53.428571,21.928572 a 0.21428572,0.21428572 0 1 1 -0.428571,0 0.21428572,0.21428572 0 1 1 0.428571,0 z"
       transform="matrix(17.440001,0,0,18.773381,1738.2042,-70.12915)" />
    <path
       transform="matrix(17.440001,0,0,18.773381,1265.6783,-50.01478)"
       sodipodi:type="arc"
       style="fill:#ffffff;stroke:#000000;stroke-opacity:1"
       id="path5251-6"
       sodipodi:cx="-22.714285"
       sodipodi:cy="20.785715"
       sodipodi:rx="2.4285715"
       sodipodi:ry="3.5"
       d="m -20.285713,20.785715 a 2.4285715,3.5 0 1 1 -4.857143,0 2.4285715,3.5 0 1 1 4.857143,0 z" />
    <path
       sodipodi:type="arc"
       style="fill:#ffffff;stroke:#000000;stroke-opacity:1"
       id="path5259-7"
       sodipodi:cx="-53.642857"
       sodipodi:cy="21.928572"
       sodipodi:rx="0.21428572"
       sodipodi:ry="0.21428572"
       d="m -53.428571,21.928572 a 0.21428572,0.21428572 0 1 1 -0.428571,0 0.21428572,0.21428572 0 1 1 0.428571,0 z"
       transform="matrix(17.440001,0,0,18.773381,1819.827,-67.47007)" />
    <path
       sodipodi:type="arc"
       style="fill:#ffffff;stroke:#000000;stroke-opacity:1"
       id="path5282"
       sodipodi:cx="-43.42857"
       sodipodi:cy="14.357142"
       sodipodi:rx="3.5714285"
       sodipodi:ry="6.6428571"
       d="m -39.857141,14.357142 a 3.5714285,6.6428571 0 1 1 -7.142857,0 3.5714285,6.6428571 0 1 1 7.142857,0 z"
       transform="matrix(17.21349,3.0158715,-2.801669,18.529553,1431.654,56.30075)" />
    <path
       transform="matrix(16.816077,-4.9765718,4.6231104,18.101756,1208.1391,-285.99853)"
       sodipodi:type="arc"
       style="fill:#ffffff;stroke:#000000;stroke-opacity:1"
       id="path5282-1"
       sodipodi:cx="-43.42857"
       sodipodi:cy="14.357142"
       sodipodi:rx="3.5714285"
       sodipodi:ry="6.6428571"
       d="m -39.857141,14.357142 a 3.5714285,6.6428571 0 1 1 -7.142857,0 3.5714285,6.6428571 0 1 1 7.142857,0 z" />
    <rect
       style="fill:#ffffff;stroke:#000000;stroke-width:18.09441376;stroke-opacity:1"
       id="rect5302"
       width="7.4742861"
       height="152.86897"
       x="476.94696"
       y="356.29501" />
    <rect
       style="fill:#ffffff;stroke:#000000;stroke-width:19.02680969;stroke-opacity:1"
       id="rect5302-4"
       width="6.5756121"
       height="192.13025"
       x="563.35059"
       y="333.9823" />
    <rect
       style="fill:#ffffff;stroke:#000000;stroke-width:19.02680969;stroke-opacity:1"
       id="rect5302-4-6"
       width="6.5756121"
       height="192.13025"
       x="658.0249"
       y="332.64114" />
  </g>
</svg>
