<?xml version="1.0" encoding="UTF-8" standalone="no"?>
<!-- Created with Inkscape (http://www.inkscape.org/) -->

<svg
   xmlns:dc="http://purl.org/dc/elements/1.1/"
   xmlns:cc="http://creativecommons.org/ns#"
   xmlns:rdf="http://www.w3.org/1999/02/22-rdf-syntax-ns#"
   xmlns:svg="http://www.w3.org/2000/svg"
   xmlns="http://www.w3.org/2000/svg"
   xmlns:sodipodi="http://sodipodi.sourceforge.net/DTD/sodipodi-0.dtd"
   xmlns:inkscape="http://www.inkscape.org/namespaces/inkscape"
   width="297mm"
   height="210mm"
   id="svg3027"
   version="1.1"
   inkscape:version="0.48.4 r9939"
   sodipodi:docname="bee_icon.svg">
  <defs
     id="defs3029" />
  <sodipodi:namedview
     inkscape:document-units="mm"
     pagecolor="#ffffff"
     bordercolor="#666666"
     borderopacity="1.0"
     inkscape:pageopacity="0.0"
     inkscape:pageshadow="2"
     inkscape:zoom="0.43415836"
     inkscape:cx="305.73544"
     inkscape:cy="380"
     inkscape:current-layer="layer1"
     id="namedview3031"
     showgrid="false"
     inkscape:window-width="1366"
     inkscape:window-height="716"
     inkscape:window-x="0"
     inkscape:window-y="0"
     inkscape:window-maximized="1" />
  <metadata
     id="metadata3033">
    <rdf:RDF>
      <cc:Work
         rdf:about="">
        <dc:format>image/svg+xml</dc:format>
        <dc:type
           rdf:resource="http://purl.org/dc/dcmitype/StillImage" />
        <dc:title></dc:title>
      </cc:Work>
    </rdf:RDF>
  </metadata>
  <g
     inkscape:label="Layer 1"
     inkscape:groupmode="layer"
     id="layer1">
    <path
       sodipodi:type="arc"
       style="fill:#ffff00;stroke:#000000;stroke-opacity:1"
       id="path2993"
       sodipodi:cx="16"
       sodipodi:cy="13.857142"
       sodipodi:rx="9"
       sodipodi:ry="3.4285715"
       d="m 25,13.857142 a 9,3.4285715 0 1 1 -18,0 9,3.4285715 0 1 1 18,0 z"
       transform="matrix(29.036921,0,0,34.333814,69.7808,-24.612776)" />
    <path
       sodipodi:type="arc"
       style="fill:#ffffff;stroke:#000000;stroke-opacity:1"
       id="path5251"
       sodipodi:cx="-22.714285"
       sodipodi:cy="20.785715"
       sodipodi:rx="2.4285715"
       sodipodi:ry="3.5"
       d="m -20.285713,20.785715 a 2.4285715,3.5 0 1 1 -4.857143,0 2.4285715,3.5 0 1 1 4.857143,0 z"
       transform="matrix(17.440001,0,0,18.773381,1073.8001,-30.247407)" />
    <path
       sodipodi:type="arc"
       style="fill:#ffffff;stroke:#000000;stroke-opacity:1"
       id="path5259"
       sodipodi:cx="-53.642857"
       sodipodi:cy="21.928572"
       sodipodi:rx="0.21428572"
       sodipodi:ry="0.21428572"
       d="m -53.428571,21.928572 a 0.21428572,0.21428572 0 1 1 -0.428571,0 0.21428572,0.21428572 0 1 1 0.428571,0 z"
       transform="matrix(17.440001,0,0,18.773381,1629.9488,-51.702694)" />
    <path
       transform="matrix(17.440001,0,0,18.773381,1157.4229,-31.588324)"
       sodipodi:type="arc"
       style="fill:#ffffff;stroke:#000000;stroke-opacity:1"
       id="path5251-6"
       sodipodi:cx="-22.714285"
       sodipodi:cy="20.785715"
       sodipodi:rx="2.4285715"
       sodipodi:ry="3.5"
       d="m -20.285713,20.785715 a 2.4285715,3.5 0 1 1 -4.857143,0 2.4285715,3.5 0 1 1 4.857143,0 z" />
    <path
       sodipodi:type="arc"
       style="fill:#ffffff;stroke:#000000;stroke-opacity:1"
       id="path5259-7"
       sodipodi:cx="-53.642857"
       sodipodi:cy="21.928572"
       sodipodi:rx="0.21428572"
       sodipodi:ry="0.21428572"
       d="m -53.428571,21.928572 a 0.21428572,0.21428572 0 1 1 -0.428571,0 0.21428572,0.21428572 0 1 1 0.428571,0 z"
       transform="matrix(17.440001,0,0,18.773381,1711.5716,-49.043614)" />
    <path
       sodipodi:type="arc"
       style="fill:#ffffff;stroke:#000000;stroke-opacity:1"
       id="path5282"
       sodipodi:cx="-43.42857"
       sodipodi:cy="14.357142"
       sodipodi:rx="3.5714285"
       sodipodi:ry="6.6428571"
       d="m -39.857141,14.357142 a 3.5714285,6.6428571 0 1 1 -7.142857,0 3.5714285,6.6428571 0 1 1 7.142857,0 z"
       transform="matrix(17.21349,3.0158715,-2.801669,18.529553,1323.3986,74.727206)" />
    <path
       transform="matrix(16.816077,-4.9765718,4.6231104,18.101756,1099.8837,-267.57207)"
       sodipodi:type="arc"
       style="fill:#ffffff;stroke:#000000;stroke-opacity:1"
       id="path5282-1"
       sodipodi:cx="-43.42857"
       sodipodi:cy="14.357142"
       sodipodi:rx="3.5714285"
       sodipodi:ry="6.6428571"
       d="m -39.857141,14.357142 a 3.5714285,6.6428571 0 1 1 -7.142857,0 3.5714285,6.6428571 0 1 1 7.142857,0 z" />
    <rect
       style="fill:#ffffff;stroke:#000000;stroke-width:18.09441376;stroke-opacity:1"
       id="rect5302"
       width="7.4742861"
       height="152.86897"
       x="368.69153"
       y="374.72147" />
    <rect
       style="fill:#ffffff;stroke:#000000;stroke-width:19.02680969;stroke-opacity:1"
       id="rect5302-4"
       width="6.5756121"
       height="192.13025"
       x="455.09515"
       y="352.40875" />
    <rect
       style="fill:#ffffff;stroke:#000000;stroke-width:19.02680969;stroke-opacity:1"
       id="rect5302-4-6"
       width="6.5756121"
       height="192.13025"
       x="549.76947"
       y="351.0676" />
  </g>
</svg>
